<mxfile host="app.diagrams.net" modified="2023-04-27T20:33:32.885Z" agent="Mozilla/5.0 (X11; Linux x86_64) AppleWebKit/537.36 (KHTML, like Gecko) Chrome/109.0.0.0 Safari/537.36" etag="XWsGBr2UxWM4K4DTLvkV" version="21.2.3" type="device">
  <diagram name="Страница 1" id="kTZTffR6gKLli-k9xVEi">
    <mxGraphModel dx="1195" dy="658" grid="1" gridSize="10" guides="1" tooltips="1" connect="1" arrows="1" fold="1" page="1" pageScale="1" pageWidth="1169" pageHeight="827" math="0" shadow="0">
      <root>
        <mxCell id="0" />
        <mxCell id="1" parent="0" />
        <mxCell id="exsmO-ag0ajFRI4BeNMT-10" style="edgeStyle=orthogonalEdgeStyle;rounded=0;orthogonalLoop=1;jettySize=auto;html=1;entryX=0.5;entryY=0;entryDx=0;entryDy=0;" edge="1" parent="1" source="exsmO-ag0ajFRI4BeNMT-1" target="exsmO-ag0ajFRI4BeNMT-2">
          <mxGeometry relative="1" as="geometry" />
        </mxCell>
        <mxCell id="exsmO-ag0ajFRI4BeNMT-11" style="edgeStyle=orthogonalEdgeStyle;rounded=0;orthogonalLoop=1;jettySize=auto;html=1;entryX=0.5;entryY=0;entryDx=0;entryDy=0;" edge="1" parent="1" source="exsmO-ag0ajFRI4BeNMT-1" target="exsmO-ag0ajFRI4BeNMT-3">
          <mxGeometry relative="1" as="geometry" />
        </mxCell>
        <mxCell id="exsmO-ag0ajFRI4BeNMT-12" style="edgeStyle=orthogonalEdgeStyle;rounded=0;orthogonalLoop=1;jettySize=auto;html=1;entryX=0.5;entryY=0;entryDx=0;entryDy=0;" edge="1" parent="1" source="exsmO-ag0ajFRI4BeNMT-1" target="exsmO-ag0ajFRI4BeNMT-4">
          <mxGeometry relative="1" as="geometry" />
        </mxCell>
        <mxCell id="exsmO-ag0ajFRI4BeNMT-15" style="edgeStyle=orthogonalEdgeStyle;rounded=0;orthogonalLoop=1;jettySize=auto;html=1;entryX=0.5;entryY=0;entryDx=0;entryDy=0;" edge="1" parent="1" source="exsmO-ag0ajFRI4BeNMT-1" target="exsmO-ag0ajFRI4BeNMT-7">
          <mxGeometry relative="1" as="geometry" />
        </mxCell>
        <mxCell id="exsmO-ag0ajFRI4BeNMT-16" style="edgeStyle=orthogonalEdgeStyle;rounded=0;orthogonalLoop=1;jettySize=auto;html=1;entryX=0.5;entryY=0;entryDx=0;entryDy=0;" edge="1" parent="1" source="exsmO-ag0ajFRI4BeNMT-1" target="exsmO-ag0ajFRI4BeNMT-8">
          <mxGeometry relative="1" as="geometry" />
        </mxCell>
        <mxCell id="exsmO-ag0ajFRI4BeNMT-17" style="edgeStyle=orthogonalEdgeStyle;rounded=0;orthogonalLoop=1;jettySize=auto;html=1;entryX=0.5;entryY=0;entryDx=0;entryDy=0;" edge="1" parent="1" source="exsmO-ag0ajFRI4BeNMT-1" target="exsmO-ag0ajFRI4BeNMT-9">
          <mxGeometry relative="1" as="geometry" />
        </mxCell>
        <mxCell id="exsmO-ag0ajFRI4BeNMT-46" style="edgeStyle=orthogonalEdgeStyle;rounded=0;orthogonalLoop=1;jettySize=auto;html=1;entryX=0.5;entryY=0;entryDx=0;entryDy=0;" edge="1" parent="1" source="exsmO-ag0ajFRI4BeNMT-1" target="exsmO-ag0ajFRI4BeNMT-5">
          <mxGeometry relative="1" as="geometry" />
        </mxCell>
        <mxCell id="exsmO-ag0ajFRI4BeNMT-1" value="Пр. О. литературы" style="rounded=0;whiteSpace=wrap;html=1;" vertex="1" parent="1">
          <mxGeometry x="490" y="110" width="120" height="60" as="geometry" />
        </mxCell>
        <mxCell id="exsmO-ag0ajFRI4BeNMT-27" style="edgeStyle=orthogonalEdgeStyle;rounded=0;orthogonalLoop=1;jettySize=auto;html=1;entryX=0;entryY=0.5;entryDx=0;entryDy=0;" edge="1" parent="1" source="exsmO-ag0ajFRI4BeNMT-2" target="exsmO-ag0ajFRI4BeNMT-20">
          <mxGeometry relative="1" as="geometry">
            <Array as="points">
              <mxPoint x="60" y="310" />
            </Array>
          </mxGeometry>
        </mxCell>
        <mxCell id="exsmO-ag0ajFRI4BeNMT-28" style="edgeStyle=orthogonalEdgeStyle;rounded=0;orthogonalLoop=1;jettySize=auto;html=1;entryX=0;entryY=0.5;entryDx=0;entryDy=0;" edge="1" parent="1" source="exsmO-ag0ajFRI4BeNMT-2" target="exsmO-ag0ajFRI4BeNMT-22">
          <mxGeometry relative="1" as="geometry">
            <Array as="points">
              <mxPoint x="60" y="380" />
            </Array>
          </mxGeometry>
        </mxCell>
        <mxCell id="exsmO-ag0ajFRI4BeNMT-29" style="edgeStyle=orthogonalEdgeStyle;rounded=0;orthogonalLoop=1;jettySize=auto;html=1;entryX=0;entryY=0.5;entryDx=0;entryDy=0;" edge="1" parent="1" source="exsmO-ag0ajFRI4BeNMT-2" target="exsmO-ag0ajFRI4BeNMT-21">
          <mxGeometry relative="1" as="geometry">
            <Array as="points">
              <mxPoint x="60" y="450" />
            </Array>
          </mxGeometry>
        </mxCell>
        <mxCell id="exsmO-ag0ajFRI4BeNMT-30" style="edgeStyle=orthogonalEdgeStyle;rounded=0;orthogonalLoop=1;jettySize=auto;html=1;entryX=0;entryY=0.5;entryDx=0;entryDy=0;" edge="1" parent="1" source="exsmO-ag0ajFRI4BeNMT-2" target="exsmO-ag0ajFRI4BeNMT-23">
          <mxGeometry relative="1" as="geometry">
            <Array as="points">
              <mxPoint x="60" y="520" />
            </Array>
          </mxGeometry>
        </mxCell>
        <mxCell id="exsmO-ag0ajFRI4BeNMT-31" style="edgeStyle=orthogonalEdgeStyle;rounded=0;orthogonalLoop=1;jettySize=auto;html=1;entryX=-0.011;entryY=0.567;entryDx=0;entryDy=0;entryPerimeter=0;" edge="1" parent="1" source="exsmO-ag0ajFRI4BeNMT-2" target="exsmO-ag0ajFRI4BeNMT-24">
          <mxGeometry relative="1" as="geometry">
            <Array as="points">
              <mxPoint x="60" y="594" />
            </Array>
          </mxGeometry>
        </mxCell>
        <mxCell id="exsmO-ag0ajFRI4BeNMT-32" style="edgeStyle=orthogonalEdgeStyle;rounded=0;orthogonalLoop=1;jettySize=auto;html=1;entryX=0;entryY=0.5;entryDx=0;entryDy=0;" edge="1" parent="1" source="exsmO-ag0ajFRI4BeNMT-2" target="exsmO-ag0ajFRI4BeNMT-25">
          <mxGeometry relative="1" as="geometry">
            <Array as="points">
              <mxPoint x="60" y="660" />
            </Array>
          </mxGeometry>
        </mxCell>
        <mxCell id="exsmO-ag0ajFRI4BeNMT-33" style="edgeStyle=orthogonalEdgeStyle;rounded=0;orthogonalLoop=1;jettySize=auto;html=1;entryX=0;entryY=0.5;entryDx=0;entryDy=0;" edge="1" parent="1" source="exsmO-ag0ajFRI4BeNMT-2" target="exsmO-ag0ajFRI4BeNMT-26">
          <mxGeometry relative="1" as="geometry">
            <Array as="points">
              <mxPoint x="60" y="730" />
            </Array>
          </mxGeometry>
        </mxCell>
        <mxCell id="exsmO-ag0ajFRI4BeNMT-2" value="Пр. О. библиотек" style="rounded=0;whiteSpace=wrap;html=1;" vertex="1" parent="1">
          <mxGeometry x="40" y="200" width="120" height="60" as="geometry" />
        </mxCell>
        <mxCell id="exsmO-ag0ajFRI4BeNMT-37" style="edgeStyle=orthogonalEdgeStyle;rounded=0;orthogonalLoop=1;jettySize=auto;html=1;entryX=0;entryY=0.5;entryDx=0;entryDy=0;" edge="1" parent="1" source="exsmO-ag0ajFRI4BeNMT-3" target="exsmO-ag0ajFRI4BeNMT-34">
          <mxGeometry relative="1" as="geometry">
            <Array as="points">
              <mxPoint x="210" y="310" />
            </Array>
          </mxGeometry>
        </mxCell>
        <mxCell id="exsmO-ag0ajFRI4BeNMT-38" style="edgeStyle=orthogonalEdgeStyle;rounded=0;orthogonalLoop=1;jettySize=auto;html=1;entryX=0;entryY=0.5;entryDx=0;entryDy=0;" edge="1" parent="1" source="exsmO-ag0ajFRI4BeNMT-3" target="exsmO-ag0ajFRI4BeNMT-35">
          <mxGeometry relative="1" as="geometry">
            <Array as="points">
              <mxPoint x="210" y="380" />
            </Array>
          </mxGeometry>
        </mxCell>
        <mxCell id="exsmO-ag0ajFRI4BeNMT-39" style="edgeStyle=orthogonalEdgeStyle;rounded=0;orthogonalLoop=1;jettySize=auto;html=1;entryX=0;entryY=0.5;entryDx=0;entryDy=0;" edge="1" parent="1" source="exsmO-ag0ajFRI4BeNMT-3" target="exsmO-ag0ajFRI4BeNMT-36">
          <mxGeometry relative="1" as="geometry">
            <Array as="points">
              <mxPoint x="210" y="450" />
            </Array>
          </mxGeometry>
        </mxCell>
        <mxCell id="exsmO-ag0ajFRI4BeNMT-41" style="edgeStyle=orthogonalEdgeStyle;rounded=0;orthogonalLoop=1;jettySize=auto;html=1;entryX=0;entryY=0.5;entryDx=0;entryDy=0;" edge="1" parent="1" source="exsmO-ag0ajFRI4BeNMT-3" target="exsmO-ag0ajFRI4BeNMT-40">
          <mxGeometry relative="1" as="geometry">
            <Array as="points">
              <mxPoint x="210" y="530" />
            </Array>
          </mxGeometry>
        </mxCell>
        <mxCell id="exsmO-ag0ajFRI4BeNMT-3" value="Пр. О. лирических произведений" style="rounded=0;whiteSpace=wrap;html=1;" vertex="1" parent="1">
          <mxGeometry x="190" y="200" width="120" height="60" as="geometry" />
        </mxCell>
        <mxCell id="exsmO-ag0ajFRI4BeNMT-43" style="edgeStyle=orthogonalEdgeStyle;rounded=0;orthogonalLoop=1;jettySize=auto;html=1;entryX=0;entryY=0.5;entryDx=0;entryDy=0;" edge="1" parent="1" source="exsmO-ag0ajFRI4BeNMT-4" target="exsmO-ag0ajFRI4BeNMT-42">
          <mxGeometry relative="1" as="geometry">
            <Array as="points">
              <mxPoint x="360" y="310" />
            </Array>
          </mxGeometry>
        </mxCell>
        <mxCell id="exsmO-ag0ajFRI4BeNMT-4" value="Пр. О. справочной литературы" style="rounded=0;whiteSpace=wrap;html=1;" vertex="1" parent="1">
          <mxGeometry x="340" y="200" width="120" height="60" as="geometry" />
        </mxCell>
        <mxCell id="exsmO-ag0ajFRI4BeNMT-45" style="edgeStyle=orthogonalEdgeStyle;rounded=0;orthogonalLoop=1;jettySize=auto;html=1;entryX=0;entryY=0.5;entryDx=0;entryDy=0;" edge="1" parent="1" source="exsmO-ag0ajFRI4BeNMT-5" target="exsmO-ag0ajFRI4BeNMT-44">
          <mxGeometry relative="1" as="geometry">
            <Array as="points">
              <mxPoint x="505" y="310" />
            </Array>
          </mxGeometry>
        </mxCell>
        <mxCell id="exsmO-ag0ajFRI4BeNMT-5" value="Пр. О. обучающей литературы" style="rounded=0;whiteSpace=wrap;html=1;" vertex="1" parent="1">
          <mxGeometry x="490" y="200" width="120" height="60" as="geometry" />
        </mxCell>
        <mxCell id="exsmO-ag0ajFRI4BeNMT-50" style="edgeStyle=orthogonalEdgeStyle;rounded=0;orthogonalLoop=1;jettySize=auto;html=1;entryX=0;entryY=0.5;entryDx=0;entryDy=0;" edge="1" parent="1" source="exsmO-ag0ajFRI4BeNMT-7" target="exsmO-ag0ajFRI4BeNMT-47">
          <mxGeometry relative="1" as="geometry">
            <Array as="points">
              <mxPoint x="660" y="310" />
            </Array>
          </mxGeometry>
        </mxCell>
        <mxCell id="exsmO-ag0ajFRI4BeNMT-51" style="edgeStyle=orthogonalEdgeStyle;rounded=0;orthogonalLoop=1;jettySize=auto;html=1;entryX=0;entryY=0.5;entryDx=0;entryDy=0;" edge="1" parent="1" source="exsmO-ag0ajFRI4BeNMT-7" target="exsmO-ag0ajFRI4BeNMT-48">
          <mxGeometry relative="1" as="geometry">
            <Array as="points">
              <mxPoint x="660" y="380" />
            </Array>
          </mxGeometry>
        </mxCell>
        <mxCell id="exsmO-ag0ajFRI4BeNMT-52" style="edgeStyle=orthogonalEdgeStyle;rounded=0;orthogonalLoop=1;jettySize=auto;html=1;entryX=0;entryY=0.5;entryDx=0;entryDy=0;" edge="1" parent="1" source="exsmO-ag0ajFRI4BeNMT-7" target="exsmO-ag0ajFRI4BeNMT-49">
          <mxGeometry relative="1" as="geometry">
            <Array as="points">
              <mxPoint x="660" y="460" />
            </Array>
          </mxGeometry>
        </mxCell>
        <mxCell id="exsmO-ag0ajFRI4BeNMT-7" value="Пр. О. исторических источников" style="rounded=0;whiteSpace=wrap;html=1;" vertex="1" parent="1">
          <mxGeometry x="640" y="200" width="120" height="60" as="geometry" />
        </mxCell>
        <mxCell id="exsmO-ag0ajFRI4BeNMT-54" style="edgeStyle=orthogonalEdgeStyle;rounded=0;orthogonalLoop=1;jettySize=auto;html=1;entryX=0;entryY=0.5;entryDx=0;entryDy=0;" edge="1" parent="1" source="exsmO-ag0ajFRI4BeNMT-8" target="exsmO-ag0ajFRI4BeNMT-53">
          <mxGeometry relative="1" as="geometry">
            <Array as="points">
              <mxPoint x="810" y="310" />
            </Array>
          </mxGeometry>
        </mxCell>
        <mxCell id="exsmO-ag0ajFRI4BeNMT-58" style="edgeStyle=orthogonalEdgeStyle;rounded=0;orthogonalLoop=1;jettySize=auto;html=1;entryX=0;entryY=0.5;entryDx=0;entryDy=0;" edge="1" parent="1" source="exsmO-ag0ajFRI4BeNMT-8" target="exsmO-ag0ajFRI4BeNMT-55">
          <mxGeometry relative="1" as="geometry">
            <Array as="points">
              <mxPoint x="810" y="384" />
            </Array>
          </mxGeometry>
        </mxCell>
        <mxCell id="exsmO-ag0ajFRI4BeNMT-59" style="edgeStyle=orthogonalEdgeStyle;rounded=0;orthogonalLoop=1;jettySize=auto;html=1;entryX=0;entryY=0.5;entryDx=0;entryDy=0;" edge="1" parent="1" source="exsmO-ag0ajFRI4BeNMT-8" target="exsmO-ag0ajFRI4BeNMT-56">
          <mxGeometry relative="1" as="geometry">
            <Array as="points">
              <mxPoint x="810" y="460" />
            </Array>
          </mxGeometry>
        </mxCell>
        <mxCell id="exsmO-ag0ajFRI4BeNMT-8" value="Пр. О. статей" style="rounded=0;whiteSpace=wrap;html=1;" vertex="1" parent="1">
          <mxGeometry x="790" y="200" width="120" height="60" as="geometry" />
        </mxCell>
        <mxCell id="exsmO-ag0ajFRI4BeNMT-70" style="edgeStyle=orthogonalEdgeStyle;rounded=0;orthogonalLoop=1;jettySize=auto;html=1;entryX=0;entryY=0.5;entryDx=0;entryDy=0;" edge="1" parent="1" source="exsmO-ag0ajFRI4BeNMT-9" target="exsmO-ag0ajFRI4BeNMT-60">
          <mxGeometry relative="1" as="geometry">
            <Array as="points">
              <mxPoint x="960" y="310" />
            </Array>
          </mxGeometry>
        </mxCell>
        <mxCell id="exsmO-ag0ajFRI4BeNMT-71" style="edgeStyle=orthogonalEdgeStyle;rounded=0;orthogonalLoop=1;jettySize=auto;html=1;entryX=0;entryY=0.5;entryDx=0;entryDy=0;" edge="1" parent="1" source="exsmO-ag0ajFRI4BeNMT-9" target="exsmO-ag0ajFRI4BeNMT-62">
          <mxGeometry relative="1" as="geometry">
            <Array as="points">
              <mxPoint x="960" y="380" />
            </Array>
          </mxGeometry>
        </mxCell>
        <mxCell id="exsmO-ag0ajFRI4BeNMT-72" style="edgeStyle=orthogonalEdgeStyle;rounded=0;orthogonalLoop=1;jettySize=auto;html=1;entryX=0;entryY=0.5;entryDx=0;entryDy=0;" edge="1" parent="1" source="exsmO-ag0ajFRI4BeNMT-9" target="exsmO-ag0ajFRI4BeNMT-63">
          <mxGeometry relative="1" as="geometry">
            <Array as="points">
              <mxPoint x="960" y="450" />
            </Array>
          </mxGeometry>
        </mxCell>
        <mxCell id="exsmO-ag0ajFRI4BeNMT-73" style="edgeStyle=orthogonalEdgeStyle;rounded=0;orthogonalLoop=1;jettySize=auto;html=1;entryX=0;entryY=0.5;entryDx=0;entryDy=0;" edge="1" parent="1" source="exsmO-ag0ajFRI4BeNMT-9" target="exsmO-ag0ajFRI4BeNMT-64">
          <mxGeometry relative="1" as="geometry">
            <Array as="points">
              <mxPoint x="960" y="520" />
            </Array>
          </mxGeometry>
        </mxCell>
        <mxCell id="exsmO-ag0ajFRI4BeNMT-74" style="edgeStyle=orthogonalEdgeStyle;rounded=0;orthogonalLoop=1;jettySize=auto;html=1;entryX=0;entryY=0.5;entryDx=0;entryDy=0;" edge="1" parent="1" source="exsmO-ag0ajFRI4BeNMT-9" target="exsmO-ag0ajFRI4BeNMT-65">
          <mxGeometry relative="1" as="geometry">
            <Array as="points">
              <mxPoint x="960" y="590" />
            </Array>
          </mxGeometry>
        </mxCell>
        <mxCell id="exsmO-ag0ajFRI4BeNMT-75" style="edgeStyle=orthogonalEdgeStyle;rounded=0;orthogonalLoop=1;jettySize=auto;html=1;entryX=0;entryY=0.5;entryDx=0;entryDy=0;" edge="1" parent="1" source="exsmO-ag0ajFRI4BeNMT-9" target="exsmO-ag0ajFRI4BeNMT-66">
          <mxGeometry relative="1" as="geometry">
            <Array as="points">
              <mxPoint x="960" y="660" />
            </Array>
          </mxGeometry>
        </mxCell>
        <mxCell id="exsmO-ag0ajFRI4BeNMT-76" style="edgeStyle=orthogonalEdgeStyle;rounded=0;orthogonalLoop=1;jettySize=auto;html=1;entryX=0;entryY=0.5;entryDx=0;entryDy=0;" edge="1" parent="1" source="exsmO-ag0ajFRI4BeNMT-9" target="exsmO-ag0ajFRI4BeNMT-68">
          <mxGeometry relative="1" as="geometry">
            <Array as="points">
              <mxPoint x="960" y="730" />
            </Array>
          </mxGeometry>
        </mxCell>
        <mxCell id="exsmO-ag0ajFRI4BeNMT-77" style="edgeStyle=orthogonalEdgeStyle;rounded=0;orthogonalLoop=1;jettySize=auto;html=1;entryX=0;entryY=0.5;entryDx=0;entryDy=0;" edge="1" parent="1" source="exsmO-ag0ajFRI4BeNMT-9" target="exsmO-ag0ajFRI4BeNMT-69">
          <mxGeometry relative="1" as="geometry">
            <Array as="points">
              <mxPoint x="960" y="797" />
            </Array>
          </mxGeometry>
        </mxCell>
        <mxCell id="exsmO-ag0ajFRI4BeNMT-9" value="Пр. О. библиографии" style="rounded=0;whiteSpace=wrap;html=1;" vertex="1" parent="1">
          <mxGeometry x="940" y="200" width="120" height="60" as="geometry" />
        </mxCell>
        <mxCell id="exsmO-ag0ajFRI4BeNMT-20" value="Пр. О. электронных библиотек" style="rounded=0;whiteSpace=wrap;html=1;" vertex="1" parent="1">
          <mxGeometry x="80" y="280" width="120" height="60" as="geometry" />
        </mxCell>
        <mxCell id="exsmO-ag0ajFRI4BeNMT-21" value="Пр. О. частных библиотек" style="rounded=0;whiteSpace=wrap;html=1;" vertex="1" parent="1">
          <mxGeometry x="80" y="420" width="120" height="60" as="geometry" />
        </mxCell>
        <mxCell id="exsmO-ag0ajFRI4BeNMT-22" value="Пр. О. учебных библиотек" style="rounded=0;whiteSpace=wrap;html=1;" vertex="1" parent="1">
          <mxGeometry x="80" y="350" width="120" height="60" as="geometry" />
        </mxCell>
        <mxCell id="exsmO-ag0ajFRI4BeNMT-23" value="Пр. О. личных библиотек" style="rounded=0;whiteSpace=wrap;html=1;" vertex="1" parent="1">
          <mxGeometry x="80" y="490" width="120" height="60" as="geometry" />
        </mxCell>
        <mxCell id="exsmO-ag0ajFRI4BeNMT-24" value="Пр. О. муниципальных библиотек" style="rounded=0;whiteSpace=wrap;html=1;" vertex="1" parent="1">
          <mxGeometry x="80" y="560" width="120" height="60" as="geometry" />
        </mxCell>
        <mxCell id="exsmO-ag0ajFRI4BeNMT-25" value="Пр. О. бюджетных библиотек" style="rounded=0;whiteSpace=wrap;html=1;" vertex="1" parent="1">
          <mxGeometry x="80" y="630" width="120" height="60" as="geometry" />
        </mxCell>
        <mxCell id="exsmO-ag0ajFRI4BeNMT-26" value="Пр. О. государственных библиотек" style="rounded=0;whiteSpace=wrap;html=1;" vertex="1" parent="1">
          <mxGeometry x="80" y="700" width="120" height="60" as="geometry" />
        </mxCell>
        <mxCell id="exsmO-ag0ajFRI4BeNMT-34" value="Пр. О. классификации стоп" style="rounded=0;whiteSpace=wrap;html=1;" vertex="1" parent="1">
          <mxGeometry x="230" y="280" width="120" height="60" as="geometry" />
        </mxCell>
        <mxCell id="exsmO-ag0ajFRI4BeNMT-35" value="Пр. О. классификации тропов" style="rounded=0;whiteSpace=wrap;html=1;" vertex="1" parent="1">
          <mxGeometry x="230" y="350" width="120" height="60" as="geometry" />
        </mxCell>
        <mxCell id="exsmO-ag0ajFRI4BeNMT-36" value="Пр. О. классификации лирических произведений" style="rounded=0;whiteSpace=wrap;html=1;" vertex="1" parent="1">
          <mxGeometry x="230" y="420" width="120" height="60" as="geometry" />
        </mxCell>
        <mxCell id="exsmO-ag0ajFRI4BeNMT-40" value="Пр. О. литературных направлений лирических произведений" style="rounded=0;whiteSpace=wrap;html=1;" vertex="1" parent="1">
          <mxGeometry x="230" y="490" width="120" height="80" as="geometry" />
        </mxCell>
        <mxCell id="exsmO-ag0ajFRI4BeNMT-42" value="Пр. О. классификации справочной литературы" style="rounded=0;whiteSpace=wrap;html=1;" vertex="1" parent="1">
          <mxGeometry x="380" y="280" width="120" height="60" as="geometry" />
        </mxCell>
        <mxCell id="exsmO-ag0ajFRI4BeNMT-44" value="Пр. О. классификации обучающей литературы" style="rounded=0;whiteSpace=wrap;html=1;" vertex="1" parent="1">
          <mxGeometry x="525" y="280" width="120" height="60" as="geometry" />
        </mxCell>
        <mxCell id="exsmO-ag0ajFRI4BeNMT-47" value="Пр. О. классификации вещественных источников" style="rounded=0;whiteSpace=wrap;html=1;" vertex="1" parent="1">
          <mxGeometry x="680" y="280" width="120" height="60" as="geometry" />
        </mxCell>
        <mxCell id="exsmO-ag0ajFRI4BeNMT-48" value="Пр. О. теории исторических источников" style="rounded=0;whiteSpace=wrap;html=1;" vertex="1" parent="1">
          <mxGeometry x="680" y="350" width="120" height="60" as="geometry" />
        </mxCell>
        <mxCell id="exsmO-ag0ajFRI4BeNMT-49" value="Пр. О. классификации письменных исторических источников" style="rounded=0;whiteSpace=wrap;html=1;" vertex="1" parent="1">
          <mxGeometry x="680" y="420" width="120" height="80" as="geometry" />
        </mxCell>
        <mxCell id="exsmO-ag0ajFRI4BeNMT-53" value="Пр. О. тезисов статей" style="rounded=0;whiteSpace=wrap;html=1;" vertex="1" parent="1">
          <mxGeometry x="830" y="280" width="120" height="60" as="geometry" />
        </mxCell>
        <mxCell id="exsmO-ag0ajFRI4BeNMT-55" value="Пр. О. авторов русских статей" style="rounded=0;whiteSpace=wrap;html=1;" vertex="1" parent="1">
          <mxGeometry x="830" y="354" width="120" height="60" as="geometry" />
        </mxCell>
        <mxCell id="exsmO-ag0ajFRI4BeNMT-56" value="Пр. О. авторов зарубежных статей" style="rounded=0;whiteSpace=wrap;html=1;" vertex="1" parent="1">
          <mxGeometry x="830" y="430" width="120" height="60" as="geometry" />
        </mxCell>
        <mxCell id="exsmO-ag0ajFRI4BeNMT-60" value="Пр. О. истории литературы" style="rounded=0;whiteSpace=wrap;html=1;" vertex="1" parent="1">
          <mxGeometry x="980" y="280" width="120" height="60" as="geometry" />
        </mxCell>
        <mxCell id="exsmO-ag0ajFRI4BeNMT-62" value="Пр. О. литературных направлений" style="rounded=0;whiteSpace=wrap;html=1;" vertex="1" parent="1">
          <mxGeometry x="980" y="350" width="120" height="60" as="geometry" />
        </mxCell>
        <mxCell id="exsmO-ag0ajFRI4BeNMT-63" value="Пр. О. писателей" style="rounded=0;whiteSpace=wrap;html=1;" vertex="1" parent="1">
          <mxGeometry x="980" y="420" width="120" height="60" as="geometry" />
        </mxCell>
        <mxCell id="exsmO-ag0ajFRI4BeNMT-64" value="Пр. О. теории литературы" style="rounded=0;whiteSpace=wrap;html=1;" vertex="1" parent="1">
          <mxGeometry x="980" y="490" width="120" height="60" as="geometry" />
        </mxCell>
        <mxCell id="exsmO-ag0ajFRI4BeNMT-65" value="Пр. О. журналов" style="rounded=0;whiteSpace=wrap;html=1;" vertex="1" parent="1">
          <mxGeometry x="980" y="560" width="120" height="60" as="geometry" />
        </mxCell>
        <mxCell id="exsmO-ag0ajFRI4BeNMT-66" value="Пр. О. литературных локаций" style="rounded=0;whiteSpace=wrap;html=1;" vertex="1" parent="1">
          <mxGeometry x="980" y="630" width="120" height="60" as="geometry" />
        </mxCell>
        <mxCell id="exsmO-ag0ajFRI4BeNMT-68" value="Пр. О. литературных персонажей" style="rounded=0;whiteSpace=wrap;html=1;" vertex="1" parent="1">
          <mxGeometry x="980" y="700" width="120" height="60" as="geometry" />
        </mxCell>
        <mxCell id="exsmO-ag0ajFRI4BeNMT-69" value="Пр. О. белорусского литературного направления" style="rounded=0;whiteSpace=wrap;html=1;" vertex="1" parent="1">
          <mxGeometry x="980" y="767" width="120" height="60" as="geometry" />
        </mxCell>
      </root>
    </mxGraphModel>
  </diagram>
</mxfile>
